<?xml version="1.0" encoding="utf-8"?>
<!-- Generator: Adobe Illustrator 17.1.0, SVG Export Plug-In . SVG Version: 6.00 Build 0)  -->
<!DOCTYPE svg PUBLIC "-//W3C//DTD SVG 1.1 Basic//EN" "http://www.w3.org/Graphics/SVG/1.1/DTD/svg11-basic.dtd">
<svg version="1.1" baseProfile="basic" id="Lager_1"
	 xmlns="http://www.w3.org/2000/svg" xmlns:xlink="http://www.w3.org/1999/xlink" x="0px" y="0px" viewBox="0 0 841.89 595.28"
	 xml:space="preserve">
<g>
	<path d="M324.321,283.165h-6.468c-2.024,0-2.272,0.25-4.619,2.613c-1.181,1.186-20.656,20.8-20.656,20.8v-32.734
		c0-1.1-0.601-1.705-1.704-1.705h-9.902c-1.103,0-1.705,0.605-1.705,1.705v4.4c0,1.111,0.602,1.713,1.705,1.713h3.623v40.375h-3.604
		c-1.103,0-1.704,0.602-1.704,1.701v4.402c0,1.104,0.602,1.725,1.704,1.725h15.146c1.104,0,1.71-0.602,1.71-1.705v-4.404
		c0-1.111-0.605-1.719-1.71-1.719h-3.559v-3.266l7.756-7.877l13.653,16.689c1.796,2.281,1.796,2.281,4.424,2.281h5.897
		c1.097,0,1.7-0.602,1.7-1.705v-4.404c0-1.104-0.603-1.703-1.7-1.703h-4.863l-13.583-16.764l12.414-12.586h6.045
		c1.121,0,1.706-0.553,1.706-1.641v-4.484C326.027,283.77,325.423,283.165,324.321,283.165z"/>
	<path d="M377.661,320.348h-3.587V301.09c0-11.464-7.221-18.873-18.389-18.873c-5.149,0-9.472,1.588-12.85,4.717v-2.041
		c0-1.103-0.604-1.709-1.703-1.709h-9.77c-1.105,0-1.709,0.586-1.709,1.695v4.398c0,1.103,0.604,1.719,1.707,1.719h3.583v29.351
		h-3.583c-1.104,0-1.707,0.6-1.707,1.703v4.404c0,1.1,0.604,1.705,1.707,1.705h15.064c1.103,0,1.705-0.605,1.705-1.705v-4.404
		c0-1.104-0.602-1.703-1.705-1.703h-3.59v-17.885c0-7.345,5.165-12.677,12.275-12.677c6.924,0,11.06,4.494,11.06,12.033v18.529
		h-3.58c-1.107,0-1.713,0.6-1.713,1.703v4.404c0,1.1,0.605,1.705,1.713,1.705h15.071c1.103,0,1.706-0.605,1.706-1.705v-4.404
		C379.367,320.947,378.765,320.348,377.661,320.348z"/>
	<path d="M402.134,282.286c-12.903,0-23.011,10.328-23.011,23.505c0,13.039,10.039,23.262,22.854,23.262
		c12.957,0,23.103-10.322,23.103-23.504C425.08,292.502,415.002,282.286,402.134,282.286z M402.134,321.397
		c-8.294,0-14.795-6.963-14.795-15.848c0-8.888,6.296-15.597,14.639-15.597c8.34,0,14.879,6.959,14.879,15.839
		C416.856,314.688,410.528,321.397,402.134,321.397z"/>
	<path d="M492.013,283.184h-15.479c-1.103,0-1.709,0.605-1.709,1.709v4.4c0,1.1,0.605,1.703,1.709,1.703h3.479l-7.376,23.837
		l-10.438-30.371c-0.285-0.815-1.047-1.357-1.895-1.357h-3.086c-0.859,0-1.621,0.543-1.902,1.357l-10.334,30.357l-7.38-23.824h3.483
		c1.102,0,1.703-0.604,1.703-1.703v-4.4c0-1.103-0.602-1.709-1.703-1.709h-15.65c-1.107,0-1.713,0.605-1.713,1.709v4.4
		c0,1.1,0.605,1.703,1.713,1.703h3.676l12.268,36.011c0.285,0.787,1.039,1.322,1.879,1.322h3.334c0.853,0,1.613-0.547,1.889-1.357
		l10.266-29.511l10.215,29.511c0.273,0.811,1.035,1.357,1.895,1.357h3.336c0.841,0,1.595-0.535,1.876-1.318l12.273-36.015h3.672
		c1.109,0,1.715-0.604,1.715-1.703v-4.4C493.727,283.79,493.122,283.184,492.013,283.184z"/>
	<path d="M513.917,320.348h-3.584v-35.455c0-1.103-0.606-1.709-1.711-1.709h-9.859c-1.105,0-1.707,0.605-1.707,1.709v4.4
		c0,1.1,0.602,1.703,1.707,1.703h3.59v29.351h-6.516c-1.102,0-1.705,0.6-1.705,1.703v4.404c0,1.1,0.604,1.705,1.705,1.705h18.08
		c1.107,0,1.713-0.605,1.713-1.705v-4.404C515.63,320.947,515.024,320.348,513.917,320.348z"/>
	<path d="M548.938,305.289h-4.336c-1.105,0-1.711,0.6-1.711,1.703v8.336c0,2.865-2.041,5.834-5.459,5.834
		c-4.291,0-6.119-1.785-6.119-5.957v-24.207h10.471c1.104,0,1.709-0.605,1.709-1.705v-4.4c0-1.103-0.605-1.709-1.709-1.709h-10.471
		v-9.355c0-1.104-0.603-1.709-1.707-1.709h-4.56c-1.107,0-1.713,0.605-1.713,1.709v9.355h-4.768c-1.103,0-1.709,0.605-1.709,1.709
		v4.4c0,1.1,0.606,1.705,1.709,1.705h4.768v24.607c0,8.068,5.277,13.283,13.441,13.283c8.428,0,13.871-5.045,13.871-12.857v-9.039
		C550.646,305.889,550.044,305.289,548.938,305.289z"/>
	<path d="M506.243,277.502c2.762,0,5-2.238,5-5c0-2.756-2.238-5-5-5c-2.758,0-5,2.244-5,5
		C501.243,275.264,503.485,277.502,506.243,277.502z"/>
	<g>
		<path d="M551.003,283.684h-2.418v-0.501h5.436v0.501h-2.419v7.289h-0.6V283.684z"/>
		<path d="M555.706,283.183h0.872l2.745,6.689l2.757-6.689h0.85v7.79h-0.6v-7.027l-2.931,7.027h-0.195l-2.932-7.027v7.027h-0.566
			V283.183z"/>
	</g>
</g>
</svg>
